<svg xmlns:xlink="http://www.w3.org/1999/xlink" xmlns="http://www.w3.org/2000/svg" fill="none" viewBox="0 0 70 70" width="70"  height="70" ><defs><linearGradient id="__JETBRAINS_COM__LOGO_PREFIX__46" x1="25.161" x2="45.217" y1="13.686" y2="13.686" gradientUnits="userSpaceOnUse"><stop offset="0" stop-color="#FF318C"></stop><stop offset="0.149" stop-color="#FB348C"></stop><stop offset="0.285" stop-color="#F03C8C"></stop><stop offset="0.416" stop-color="#DE4A8C"></stop><stop offset="0.543" stop-color="#C45D8B"></stop><stop offset="0.669" stop-color="#A2778B"></stop><stop offset="0.793" stop-color="#79958A"></stop><stop offset="0.913" stop-color="#49B98A"></stop><stop offset="1" stop-color="#21D789"></stop></linearGradient><linearGradient id="__JETBRAINS_COM__LOGO_PREFIX__45" x1="17.131" x2="6.836" y1="8.883" y2="77.965" gradientUnits="userSpaceOnUse"><stop offset="0.091" stop-color="#21D789"></stop><stop offset="0.903" stop-color="#009AE5"></stop></linearGradient><linearGradient id="__JETBRAINS_COM__LOGO_PREFIX__44" x1="63.836" x2="-6.583" y1="6.492" y2="80.865" gradientUnits="userSpaceOnUse"><stop offset="0.091" stop-color="#21D789"></stop><stop offset="0.903" stop-color="#009AE5"></stop></linearGradient><linearGradient id="__JETBRAINS_COM__LOGO_PREFIX__43" x1="42.791" x2="66.875" y1="51.126" y2="54.551" gradientUnits="userSpaceOnUse"><stop offset="0.091" stop-color="#21D789"></stop><stop offset="0.903" stop-color="#009AE5"></stop></linearGradient><linearGradient id="__JETBRAINS_COM__LOGO_PREFIX__46" x1="25.161" x2="45.217" y1="13.686" y2="13.686" gradientUnits="userSpaceOnUse"><stop offset="0" stop-color="#FF318C"></stop><stop offset="0.149" stop-color="#FB348C"></stop><stop offset="0.285" stop-color="#F03C8C"></stop><stop offset="0.416" stop-color="#DE4A8C"></stop><stop offset="0.543" stop-color="#C45D8B"></stop><stop offset="0.669" stop-color="#A2778B"></stop><stop offset="0.793" stop-color="#79958A"></stop><stop offset="0.913" stop-color="#49B98A"></stop><stop offset="1" stop-color="#21D789"></stop></linearGradient><linearGradient id="__JETBRAINS_COM__LOGO_PREFIX__45" x1="17.131" x2="6.836" y1="8.883" y2="77.965" gradientUnits="userSpaceOnUse"><stop offset="0.091" stop-color="#21D789"></stop><stop offset="0.903" stop-color="#009AE5"></stop></linearGradient><linearGradient id="__JETBRAINS_COM__LOGO_PREFIX__44" x1="63.836" x2="-6.583" y1="6.492" y2="80.865" gradientUnits="userSpaceOnUse"><stop offset="0.091" stop-color="#21D789"></stop><stop offset="0.903" stop-color="#009AE5"></stop></linearGradient><linearGradient id="__JETBRAINS_COM__LOGO_PREFIX__43" x1="42.791" x2="66.875" y1="51.126" y2="54.551" gradientUnits="userSpaceOnUse"><stop offset="0.091" stop-color="#21D789"></stop><stop offset="0.903" stop-color="#009AE5"></stop></linearGradient></defs><path fill="url(&quot;#__JETBRAINS_COM__LOGO_PREFIX__46&quot;)" d="M20 41.5 26.688 0l15.895 8.823L20 41.5Z"></path><path fill="url(&quot;#__JETBRAINS_COM__LOGO_PREFIX__45&quot;)" d="M26.688 39V0L6.49 12.76 0 51.48 26.688 39Z"></path><path fill="url(&quot;#__JETBRAINS_COM__LOGO_PREFIX__44&quot;)" d="M68.615 21 59.573 2.698l-16.99 6.125-17.427 18.52L0 51.48l22.677 16.48L51.26 42.22 68.615 21Z"></path><path fill="url(&quot;#__JETBRAINS_COM__LOGO_PREFIX__43&quot;)" d="M56.875 40.104 45.937 35l-19.14 20.234 14.692 10.974L58.99 70 70 45.062l-13.124-4.958Z"></path><path fill="#000" d="M56 14H14v42h42V14Z"></path><path fill="#FFFFFF" d="M34.417 48.65h-15.75v2.683h15.75V48.65ZM36 19.13h3.458v12.725h6.847v2.905H36V19.13Zm-18 7.937c0-4.434 3.267-8.167 8.167-8.167 3.033 0 4.666.933 6.3 2.333l-2.1 2.567c-1.167-1.167-2.334-1.867-3.967-1.867-2.567 0-4.667 2.1-4.667 4.9 0 2.8 1.867 4.9 4.667 4.9 1.867 0 2.8-.7 4.2-1.866l2.1 2.333c-1.867 1.867-3.733 2.8-6.767 2.8C21.267 35 18 31.5 18 27.067Z"></path></svg>