<svg xmlns:xlink="http://www.w3.org/1999/xlink" xmlns="http://www.w3.org/2000/svg" viewBox="0 0 273 75" class="wt-col-inline custom-banner__logo" aria-label="Space" width="273"  height="75" ><defs><linearGradient id="__JETBRAINS_COM__LOGO_PREFIX__2" x1="33.813" x2="41.643" y1="-102.99" y2="-177.21" gradientTransform="matrix(1 0 0 -1 0 -104)" gradientUnits="userSpaceOnUse"><stop offset="0" stop-color="#fcf84a"></stop><stop offset="0.32" stop-color="#abe682"></stop><stop offset="0.79" stop-color="#36cdd2"></stop><stop offset="1" stop-color="#07c3f2"></stop></linearGradient><linearGradient id="__JETBRAINS_COM__LOGO_PREFIX__1" x1="5.095" x2="75.305" y1="-104.136" y2="-137.446" gradientTransform="matrix(1 0 0 -1 0 -104)" gradientUnits="userSpaceOnUse"><stop offset="0" stop-color="#3bea62"></stop><stop offset="1" stop-color="#087cfa"></stop></linearGradient><linearGradient id="__JETBRAINS_COM__LOGO_PREFIX__0" x1="11.52" x2="82.22" y1="-176.65" y2="-127.17" gradientTransform="matrix(1 0 0 -1 0 -104)" gradientUnits="userSpaceOnUse"><stop offset="0" stop-color="#009ae5"></stop><stop offset="0.18" stop-color="#0490dd"></stop><stop offset="0.49" stop-color="#1073c6"></stop><stop offset="0.89" stop-color="#2346a1"></stop><stop offset="1" stop-color="#293896"></stop></linearGradient></defs><linearGradient id="__JETBRAINS_COM__LOGO_PREFIX__2" x1="33.813" x2="41.643" y1="-102.99" y2="-177.21" gradientTransform="matrix(1 0 0 -1 0 -104)" gradientUnits="userSpaceOnUse"><stop offset="0" stop-color="#fcf84a"></stop><stop offset="0.32" stop-color="#abe682"></stop><stop offset="0.79" stop-color="#36cdd2"></stop><stop offset="1" stop-color="#07c3f2"></stop></linearGradient><linearGradient id="__JETBRAINS_COM__LOGO_PREFIX__1" x1="5.095" x2="75.305" y1="-104.136" y2="-137.446" gradientTransform="matrix(1 0 0 -1 0 -104)" gradientUnits="userSpaceOnUse"><stop offset="0" stop-color="#3bea62"></stop><stop offset="1" stop-color="#087cfa"></stop></linearGradient><linearGradient id="__JETBRAINS_COM__LOGO_PREFIX__0" x1="11.52" x2="82.22" y1="-176.65" y2="-127.17" gradientTransform="matrix(1 0 0 -1 0 -104)" gradientUnits="userSpaceOnUse"><stop offset="0" stop-color="#009ae5"></stop><stop offset="0.18" stop-color="#0490dd"></stop><stop offset="0.49" stop-color="#1073c6"></stop><stop offset="0.89" stop-color="#2346a1"></stop><stop offset="1" stop-color="#293896"></stop></linearGradient><path fill="#FFFFFF" d="m89.663 50.28 5.74-7c4 3.32 8.14 5.43 13.19 5.43 4 0 6.37-1.6 6.37-4.22v-.09c0-2.49-1.52-3.77-8.9-5.69-8.89-2.3-14.63-4.79-14.63-13.67v-.13c0-8.11 6.43-13.48 15.45-13.48a25.3 25.3 0 0 1 16.4 5.69l-5 7.41c-3.91-2.75-7.76-4.41-11.48-4.41s-5.68 1.72-5.68 3.9v.12c0 2.94 1.89 3.9 9.52 5.88 9 2.37 14 5.63 14 13.42v.13c0 8.88-6.69 13.87-16.21 13.87a27.91 27.91 0 0 1-18.74-7.16m66.71-10.54v-.13c0-5.69-3.78-9.46-8.26-9.46s-8.2 3.77-8.2 9.46v.13c0 5.68 3.72 9.45 8.2 9.45s8.26-3.7 8.26-9.45m-25.93-17.19h9.59v4.92a12.37 12.37 0 0 1 10.54-5.56c7.88 0 15.39 6.26 15.39 17.7v.13c0 11.44-7.38 17.7-15.39 17.7a13 13 0 0 1-10.54-5.11V67h-9.59zm61 22.17V43a14.64 14.64 0 0 0-6.12-1.28c-4.1 0-6.62 1.66-6.62 4.73v.12c0 2.62 2.14 4.16 5.23 4.16 4.48 0 7.51-2.49 7.51-6M169.463 47v-.13c0-7.48 5.61-10.93 13.62-10.93a23.69 23.69 0 0 1 8.26 1.41v-.58c0-4-2.46-6.26-7.25-6.26a24.56 24.56 0 0 0-9.33 1.85l-2.4-7.41a29.52 29.52 0 0 1 13.12-2.75c5.23 0 9 1.41 11.42 3.84s3.65 6.32 3.65 10.93V56.8h-9.27v-3.71a12.92 12.92 0 0 1-10.22 4.35c-6.37 0-11.6-3.71-11.6-10.48m36.14-7.1v-.12a17.47 17.47 0 0 1 17.104-17.828q.313-.007.626-.002c6.37 0 10.34 2.17 13.49 5.75l-5.86 6.39c-2.15-2.3-4.29-3.77-7.7-3.77-4.79 0-8.2 4.28-8.2 9.33v.13c0 5.24 3.35 9.45 8.58 9.45 3.22 0 5.43-1.4 7.76-3.64l5.61 5.75c-3.28 3.65-7.06 6.27-13.81 6.27A17.38 17.38 0 0 1 205.6 40.415q-.004-.278.002-.555M262.943 37c-.57-4.35-3.09-7.29-7.13-7.29s-6.56 2.88-7.32 7.29zm-23.84 2.87v-.12c0-9.78 6.87-17.83 16.71-17.83 11.29 0 16.47 8.88 16.47 18.59 0 .77-.07 1.67-.13 2.56h-23.53a7.883 7.883 0 0 0 8.26 6.71c3.22 0 5.55-1 8.2-3.52l5.49 4.93a16.81 16.81 0 0 1-13.81 6.39c-10.16 0-17.66-7.23-17.66-17.71"></path><g fill-rule="evenodd"><path fill="url(&quot;#__JETBRAINS_COM__LOGO_PREFIX__2&quot;)" d="M13.583 75a75 75 0 0 0 61.42-43 75 75 0 0 0-61.42-32q-3.27 0-6.57.29A75 75 0 0 0 13.583 75z"></path><path fill="url(&quot;#__JETBRAINS_COM__LOGO_PREFIX__1&quot;)" d="M7.093.3A88.3 88.3 0 0 1 46.553 32h28.45a74.76 74.76 0 0 0-61.35-32q-3.27 0-6.56.3z"></path><path fill="url(&quot;#__JETBRAINS_COM__LOGO_PREFIX__0&quot;)" d="M46.553 32c-3.43 22.67-33 43-33 43 26.89-2.54 50.46-18.64 61.45-43z"></path></g></svg>