<svg width="415" height="92" viewBox="0 0 415 92" fill="none" xmlns="http://www.w3.org/2000/svg">
<path d="M257.874 58.712L227.274 19.212H219.674V72.212H227.374V31.612L258.874 72.212H265.674V19.212H257.974V58.712H257.874ZM180.774 48.812H208.174V42.012H180.674V26.012H211.674V19.112H172.774V72.112H212.074V65.212H180.674L180.774 48.812ZM148.574 42.112C137.874 39.512 134.874 37.512 134.874 32.612C134.874 28.212 138.774 25.212 144.674 25.212C149.974 25.412 155.174 27.212 159.374 30.512L163.474 24.612C158.174 20.412 151.574 18.212 144.774 18.412C134.274 18.412 126.974 24.612 126.974 33.512C126.974 43.012 133.174 46.312 144.574 49.112C154.674 51.412 157.774 53.612 157.774 58.412C157.774 63.212 153.674 66.212 147.174 66.212C140.774 66.212 134.674 63.812 129.974 59.412L125.274 65.012C131.274 70.212 138.974 73.012 146.874 73.012C158.274 73.012 165.574 66.912 165.574 57.412C165.474 49.412 160.774 45.112 148.574 42.112ZM405.974 19.112L390.074 44.012L374.174 19.112H364.874L385.774 51.212V72.212H393.774V51.012L414.874 19.212H405.974V19.112ZM271.974 26.312H289.374V72.112H297.374V26.312H314.774V19.112H272.074L271.974 26.312ZM351.474 51.512C359.474 49.312 363.874 43.712 363.874 35.712C363.874 25.512 356.474 19.112 344.374 19.112H320.774V72.212H328.674V53.212H342.074L355.474 72.312H364.674L350.174 51.912L351.474 51.512ZM328.774 46.312V26.212H343.674C351.474 26.212 355.874 29.912 355.874 36.212C355.874 42.612 351.074 46.312 343.774 46.312H328.774ZM60.1741 4.71197C57.3741 0.111969 51.4741 -1.38803 46.8741 1.41197C45.4741 2.21197 44.3741 3.31197 43.5741 4.71197L29.8741 28.112C51.0741 38.712 65.0741 59.712 66.6741 83.412H57.0741C55.4741 63.112 43.2741 45.212 24.9741 36.312L12.3741 58.112C22.6741 62.712 29.8741 72.212 31.4741 83.312H9.4741C8.5741 83.212 7.9741 82.512 7.9741 81.612C7.9741 81.412 8.0741 81.212 8.1741 81.012L14.2741 70.612C12.1741 68.912 9.8741 67.512 7.2741 66.712L1.2741 77.112C-1.3259 81.612 0.1741 87.412 4.6741 90.012C4.6741 90.012 4.7741 90.012 4.7741 90.112C6.1741 90.912 7.7741 91.312 9.4741 91.312H39.5741C40.6741 77.212 34.3741 63.612 22.9741 55.412L27.7741 47.112C42.1741 57.012 50.3741 73.812 49.1741 91.312H74.6741C75.8741 64.812 62.8741 39.712 40.6741 25.312L50.3741 8.71197C50.7741 7.91197 51.7741 7.71198 52.5741 8.11198C53.6741 8.71198 94.6741 80.212 95.4741 81.112C95.8741 81.912 95.6741 82.812 94.8741 83.212C94.6741 83.312 94.3741 83.412 94.0741 83.412H84.1741C84.2741 86.012 84.2741 88.712 84.1741 91.312H94.0741C99.3741 91.312 103.674 87.112 103.674 81.812V81.712C103.674 80.012 103.274 78.412 102.374 77.012L60.1741 4.71197Z" fill="#EFEFEF"/>
</svg>
