<svg width="256" height="193" viewBox="0 0 256 193" fill="none" xmlns="http://www.w3.org/2000/svg">
<path d="M192.44 144.645H224.22V68.3393L188.415 32.5346L165.943 55.0069L192.44 81.5041V144.645ZM224.304 160.576H178.018H113.452L86.9545 134.079L98.1906 122.843L120.076 144.728H165.104L120.747 100.287L132.067 88.9669L176.424 133.325V88.2961L154.623 66.4946L165.775 55.3423L110.685 0H56.3485H0L31.696 31.696V31.7799H31.8637H97.436L120.663 55.0069L86.7029 88.9669L63.4759 65.7399V47.7118H31.696V78.9047L86.7029 133.912L64.3144 156.3L100.119 192.105H154.455H256L224.304 160.576Z" fill="#FF7518"/>
</svg>
