<svg width="31" height="23" viewBox="0 0 31 23" fill="none" xmlns="http://www.w3.org/2000/svg">
<path d="M0.260321 18.8451C0.778531 19.8815 1.97689 20.3997 3.82301 20.3997C4.86861 20.3833 5.91006 20.264 6.93227 20.0435L8.32496 19.7196C9.94902 21.0566 11.9193 21.905 14.0066 22.1661C16.0939 22.4272 18.2125 22.0903 20.1158 21.1946C22.0192 20.2989 23.6291 18.8812 24.7584 17.1064C25.8876 15.3316 26.4897 13.2727 26.4947 11.1691C26.4947 10.9424 26.4947 10.7157 26.4623 10.489L27.5635 9.54971C30.3165 7.05583 31.3205 5.01538 30.5432 3.46075C29.4744 1.35552 25.685 1.77656 22.511 2.58627C20.886 1.2277 18.9065 0.361989 16.8058 0.0911807C14.7051 -0.179627 12.5707 0.155753 10.6543 1.05779C8.73791 1.95983 7.11932 3.39093 5.98932 5.18241C4.85932 6.97388 4.26501 9.05107 4.27645 11.1691C4.27645 11.3958 4.27645 11.6226 4.30884 11.8493C1.75017 13.9221 -0.840876 16.7399 0.260321 18.8451ZM15.3856 20.335C13.7177 20.3324 12.0823 19.8731 10.6569 19.007C13.1254 18.1709 15.5287 17.1533 17.8471 15.9626C20.1657 14.8 22.3957 13.4685 24.519 11.9788C24.3095 14.2584 23.2574 16.378 21.5684 17.9233C19.8793 19.4685 17.6748 20.3285 15.3856 20.335ZM28.7943 4.36761C29.0534 4.91821 28.2113 6.37568 26.106 8.25419C25.7082 6.78985 25.0137 5.42288 24.0656 4.23806C27.1101 3.62269 28.5675 3.94657 28.7943 4.36761ZM15.3856 2.00328C17.5504 2.01025 19.6435 2.78058 21.2964 4.17871C22.9492 5.57683 24.056 7.51314 24.4219 9.64688C22.0744 11.4062 19.5699 12.9458 16.9402 14.246C14.3373 15.5939 11.6161 16.6998 8.81079 17.5496C7.55757 16.2571 6.71273 14.6241 6.38169 12.8545C6.05065 11.0849 6.24807 9.25701 6.94931 7.59889C7.65056 5.94077 8.82458 4.52587 10.3249 3.53076C11.8252 2.53565 13.5853 2.00439 15.3856 2.00328ZM4.66511 14.0841C5.06299 15.5484 5.7575 16.9154 6.70556 18.1002C3.95257 18.6832 2.26838 18.5212 1.97689 17.9706C1.6854 17.42 2.36555 16.1569 4.66511 14.0841Z" fill="#EFEFEF"/>
</svg>
