<svg width="17" height="17" viewBox="0 0 17 17" fill="none" xmlns="http://www.w3.org/2000/svg">
<path d="M16.8059 10.1833C16.7204 10.0976 16.6131 10.0367 16.4956 10.0074C16.3782 9.97799 16.2549 9.98117 16.1391 10.0165C14.8677 10.401 13.5159 10.4332 12.2276 10.1098C10.9393 9.78641 9.76291 9.11947 8.82371 8.18008C7.88451 7.24069 7.21772 6.06404 6.89438 4.7755C6.57103 3.48697 6.60326 2.13483 6.98762 0.863172C7.02329 0.747298 7.02671 0.623889 6.9975 0.506218C6.96829 0.388547 6.90757 0.281066 6.82185 0.195334C6.73614 0.109602 6.62868 0.0488633 6.51103 0.0196494C6.39339 -0.00956453 6.27 -0.00614793 6.15415 0.0295317C4.39639 0.568101 2.85323 1.64746 1.74427 3.114C0.774458 4.40186 0.182896 5.93469 0.0360476 7.54028C-0.110801 9.14587 0.192881 10.7606 0.912976 12.2031C1.63307 13.6456 2.74105 14.8586 4.11243 15.706C5.48381 16.5534 7.06427 17.0015 8.67623 17C10.5568 17.0058 12.3874 16.3943 13.8871 15.2593C15.3533 14.1501 16.4325 12.6066 16.9709 10.8485C17.0062 10.7331 17.0094 10.6102 16.9804 10.4931C16.9513 10.3759 16.891 10.2688 16.8059 10.1833ZM13.0853 14.1939C11.673 15.2579 9.92401 15.7757 8.16027 15.6522C6.39653 15.5287 4.73676 14.7721 3.4865 13.5217C2.23625 12.2713 1.47966 10.6112 1.35602 8.84711C1.23238 7.08302 1.75 5.33362 2.81361 3.92097C3.50656 3.00568 4.40242 2.26373 5.4307 1.7535C5.37212 2.16467 5.3426 2.57947 5.34235 2.99479C5.34478 5.29344 6.2588 7.49724 7.88386 9.12263C9.50891 10.748 11.7123 11.6622 14.0104 11.6647C14.4265 11.6645 14.842 11.635 15.254 11.5763C14.7434 12.605 14.001 13.501 13.0853 14.1939Z" fill="#EFEFEF"/>
</svg>
